<?xml version="1.0" encoding="utf-8"?>
<svg xmlns="http://www.w3.org/2000/svg" style="margin: auto; background: none; display: block; shape-rendering: auto;" width="288" height="53" preserveAspectRatio="xMidYMid">
<style type="text/css">
  text {
    text-anchor: middle; font-size: 47px; opacity: 0;
  }
</style>
<g style="transform-origin: 144px 26.5px; transform: scale(1.04444);">
<g transform="translate(144,26.5)">
  <g transform="translate(0,0)"><g class="path" style="transform: matrix(1, 0, 0, 1, 0, 14.925); opacity: 0.05; transform-origin: -122.45px 1.1079px; animation: 1s linear 0s 1 normal forwards running float-btt-in-e6e70a65-d4f2-478f-9e59-a29c3e1b0239;"><path d="M1.57-1.89L3.28-5.26L3.28-5.26Q4.46-4.23 6.23-3.60L6.23-3.60L6.23-3.60Q8.01-2.97 10.04-2.97L10.04-2.97L10.04-2.97Q12.55-2.97 13.84-3.80L13.84-3.80L13.84-3.80Q15.12-4.63 15.12-5.94L15.12-5.94L15.12-5.94Q15.12-6.61 14.87-7.20L14.87-7.20L14.87-7.20Q14.63-7.79 13.97-8.32L13.97-8.32L13.97-8.32Q13.32-8.87 12.20-9.38L12.20-9.38L12.20-9.38Q11.07-9.90 9.27-10.53L9.27-10.53L9.27-10.53Q5.94-11.65 4.32-13.21L4.32-13.21L4.32-13.21Q2.70-14.76 2.70-17.50L2.70-17.50L2.70-17.50Q2.70-18.86 3.31-20.02L3.31-20.02L3.31-20.02Q3.92-21.20 5.06-22.07L5.06-22.07L5.06-22.07Q6.21-22.95 7.85-23.45L7.85-23.45L7.85-23.45Q9.49-23.94 11.61-23.94L11.61-23.94L11.61-23.94Q13.90-23.94 15.64-23.47L15.64-23.47L15.64-23.47Q17.37-22.99 18.77-22.27L18.77-22.27L17.64-18.95L17.64-18.95Q16.43-19.66 14.87-20.11L14.87-20.11L14.87-20.11Q13.32-20.56 11.43-20.56L11.43-20.56L11.43-20.56Q9.09-20.56 7.88-19.62L7.88-19.62L7.88-19.62Q6.66-18.68 6.66-17.55L6.66-17.55L6.66-17.55Q6.66-17.01 6.86-16.56L6.86-16.56L6.86-16.56Q7.06-16.11 7.60-15.71L7.60-15.71L7.60-15.71Q8.14-15.30 9.04-14.89L9.04-14.89L9.04-14.89Q9.95-14.49 11.29-14.04L11.29-14.04L11.29-14.04Q13.50-13.28 15.03-12.49L15.03-12.49L15.03-12.49Q16.56-11.70 17.50-10.75L17.50-10.75L17.50-10.75Q18.45-9.81 18.86-8.71L18.86-8.71L18.86-8.71Q19.26-7.60 19.26-6.25L19.26-6.25L19.26-6.25Q19.26-4.68 18.59-3.42L18.59-3.42L18.59-3.42Q17.91-2.16 16.70-1.28L16.70-1.28L16.70-1.28Q15.48-0.40 13.75 0.07L13.75 0.07L13.75 0.07Q12.01 0.54 9.90 0.54L9.90 0.54L9.90 0.54Q7.20 0.54 5.08-0.14L5.08-0.14L5.08-0.14Q2.97-0.81 1.57-1.89L1.57-1.89" fill="#fc4309" stroke="none" stroke-width="none" transform="translate(-132.864990234375,12.807903594970703)" style="fill: rgb(252, 67, 9);"></path></g><g class="path" style="transform: matrix(1, 0, 0, 1, 0, 14.925); opacity: 0.05; transform-origin: -102.445px -3.5721px; animation: 1s linear 0.055s 1 normal forwards running float-btt-in-e6e70a65-d4f2-478f-9e59-a29c3e1b0239;"><path d="M28.48-33.30L28.48-7.74L28.48-7.74Q28.48-5.31 29.50-4.14L29.50-4.14L29.50-4.14Q30.51-2.97 32.31-2.97L32.31-2.97L32.31-2.97Q33.16-2.97 33.97-3.17L33.97-3.17L33.97-3.17Q34.78-3.38 35.41-3.65L35.41-3.65L36.41-0.36L36.41-0.36Q35.59 0 34.40 0.27L34.40 0.27L34.40 0.27Q33.21 0.54 31.77 0.54L31.77 0.54L31.77 0.54Q30.20 0.54 28.87 0.09L28.87 0.09L28.87 0.09Q27.54-0.36 26.55-1.30L26.55-1.30L26.55-1.30Q25.56-2.25 25.00-3.73L25.00-3.73L25.00-3.73Q24.43-5.22 24.43-7.33L24.43-7.33L24.43-33.30L28.48-33.30" fill="#fc4309" stroke="none" stroke-width="none" transform="translate(-132.864990234375,12.807903594970703)" style="fill: rgb(255, 118, 92);"></path></g><g class="path" style="transform: matrix(1, 0, 0, 1, 0, 14.925); opacity: 0.05; transform-origin: -84.56px 1.1079px; animation: 1s linear 0.11s 1 normal forwards running float-btt-in-e6e70a65-d4f2-478f-9e59-a29c3e1b0239;"><path d="M58.50-10.04L42.12-10.04L42.12-10.04Q42.52-6.75 44.41-4.91L44.41-4.91L44.41-4.91Q46.30-3.06 49.41-3.06L49.41-3.06L49.41-3.06Q51.43-3.06 53.05-3.49L53.05-3.49L53.05-3.49Q54.67-3.92 56.16-4.59L56.16-4.59L57.10-1.13L57.10-1.13Q55.48-0.36 53.46 0.09L53.46 0.09L53.46 0.09Q51.43 0.54 48.91 0.54L48.91 0.54L48.91 0.54Q46.39 0.54 44.37-0.29L44.37-0.29L44.37-0.29Q42.34-1.13 40.93-2.68L40.93-2.68L40.93-2.68Q39.51-4.23 38.74-6.50L38.74-6.50L38.74-6.50Q37.98-8.78 37.98-11.70L37.98-11.70L37.98-11.70Q37.98-14.31 38.74-16.56L38.74-16.56L38.74-16.56Q39.51-18.81 40.91-20.45L40.91-20.45L40.91-20.45Q42.30-22.09 44.23-23.02L44.23-23.02L44.23-23.02Q46.17-23.94 48.55-23.94L48.55-23.94L48.55-23.94Q51.07-23.94 52.96-23.09L52.96-23.09L52.96-23.09Q54.85-22.23 56.11-20.75L56.11-20.75L56.11-20.75Q57.38-19.26 58.00-17.28L58.00-17.28L58.00-17.28Q58.63-15.30 58.63-13.09L58.63-13.09L58.63-13.09Q58.63-11.52 58.50-10.04L58.50-10.04zM48.46-20.43L48.46-20.43L48.46-20.43Q45.81-20.43 44.12-18.63L44.12-18.63L44.12-18.63Q42.43-16.83 42.07-13.32L42.07-13.32L54.90-13.32L54.90-13.32Q54.90-16.74 53.19-18.59L53.19-18.59L53.19-18.59Q51.48-20.43 48.46-20.43" fill="#fc4309" stroke="none" stroke-width="none" transform="translate(-132.864990234375,12.807903594970703)" style="fill: rgb(255, 182, 70);"></path></g><g class="path" style="transform: matrix(1, 0, 0, 1, 0, 14.925); opacity: 0.05; transform-origin: -59px 0.837903px; animation: 1s linear 0.165s 1 normal forwards running float-btt-in-e6e70a65-d4f2-478f-9e59-a29c3e1b0239;"><path d="M67.95-23.40L67.95-19.48L67.95-19.48Q69.21-21.38 71.17-22.66L71.17-22.66L71.17-22.66Q73.13-23.94 75.83-23.94L75.83-23.94L75.83-23.94Q79.78-23.94 81.74-21.55L81.74-21.55L81.74-21.55Q83.70-19.17 83.70-15.25L83.70-15.25L83.70 0L79.65 0L79.65-14.80L79.65-14.80Q79.65-17.37 78.48-18.88L78.48-18.88L78.48-18.88Q77.31-20.38 75.15-20.38L75.15-20.38L75.15-20.38Q74.12-20.38 73.13-20.00L73.13-20.00L73.13-20.00Q72.14-19.62 71.21-18.95L71.21-18.95L71.21-18.95Q70.29-18.27 69.50-17.37L69.50-17.37L69.50-17.37Q68.72-16.47 68.09-15.48L68.09-15.48L68.09 0L64.03 0L64.03-23.40L67.95-23.40" fill="#fc4309" stroke="none" stroke-width="none" transform="translate(-132.864990234375,12.807903594970703)" style="fill: rgb(255, 153, 0);"></path></g><g class="path" style="transform: matrix(1, 0, 0, 1, 0, 14.925); opacity: 0.05; transform-origin: -31.885px -3.5721px; animation: 1s linear 0.22s 1 normal forwards running float-btt-in-e6e70a65-d4f2-478f-9e59-a29c3e1b0239;"><path d="M99.54 0.54L99.54 0.54L99.54 0.54Q97.38 0.54 95.47-0.32L95.47-0.32L95.47-0.32Q93.56-1.17 92.14-2.75L92.14-2.75L92.14-2.75Q90.72-4.32 89.91-6.55L89.91-6.55L89.91-6.55Q89.10-8.78 89.10-11.56L89.10-11.56L89.10-11.56Q89.10-14.22 89.93-16.49L89.93-16.49L89.93-16.49Q90.77-18.77 92.18-20.41L92.18-20.41L92.18-20.41Q93.60-22.05 95.49-22.99L95.49-22.99L95.49-22.99Q97.38-23.94 99.50-23.94L99.50-23.94L99.50-23.94Q101.84-23.94 103.52-22.99L103.52-22.99L103.52-22.99Q105.21-22.05 106.16-21.06L106.16-21.06L106.16-33.30L110.20-33.30L110.20-5.67L110.20-5.67Q110.20-3.96 111.04-3.44L111.04-3.44L111.04-3.44Q111.87-2.92 112.86-2.92L112.86-2.92L112.00 0.22L112.00 0.22Q107.73 0.22 106.78-3.19L106.78-3.19L106.78-3.19Q105.75-1.75 104.00-0.61L104.00-0.61L104.00-0.61Q102.24 0.54 99.54 0.54zM100.44-3.06L100.44-3.06L100.44-3.06Q102.11-3.06 103.61-3.85L103.61-3.85L103.61-3.85Q105.12-4.63 106.16-5.89L106.16-5.89L106.16-17.50L106.16-17.50Q105.30-18.59 103.79-19.51L103.79-19.51L103.79-19.51Q102.28-20.43 100.40-20.43L100.40-20.43L100.40-20.43Q98.78-20.43 97.45-19.75L97.45-19.75L97.45-19.75Q96.12-19.08 95.17-17.91L95.17-17.91L95.17-17.91Q94.23-16.74 93.73-15.14L93.73-15.14L93.73-15.14Q93.24-13.54 93.24-11.70L93.24-11.70L93.24-11.70Q93.24-9.81 93.78-8.23L93.78-8.23L93.78-8.23Q94.32-6.66 95.29-5.51L95.29-5.51L95.29-5.51Q96.25-4.37 97.58-3.71L97.58-3.71L97.58-3.71Q98.91-3.06 100.44-3.06" fill="#fc4309" stroke="none" stroke-width="none" transform="translate(-132.864990234375,12.807903594970703)" style="fill: rgb(255, 102, 0);"></path></g><g class="path" style="transform: matrix(1, 0, 0, 1, 0, 14.925); opacity: 0.05; transform-origin: -6.30499px 1.1079px; animation: 1s linear 0.275s 1 normal forwards running float-btt-in-e6e70a65-d4f2-478f-9e59-a29c3e1b0239;"><path d="M136.75-10.04L120.38-10.04L120.38-10.04Q120.78-6.75 122.67-4.91L122.67-4.91L122.67-4.91Q124.56-3.06 127.66-3.06L127.66-3.06L127.66-3.06Q129.69-3.06 131.31-3.49L131.31-3.49L131.31-3.49Q132.93-3.92 134.41-4.59L134.41-4.59L135.36-1.13L135.36-1.13Q133.74-0.36 131.72 0.09L131.72 0.09L131.72 0.09Q129.69 0.54 127.17 0.54L127.17 0.54L127.17 0.54Q124.65 0.54 122.63-0.29L122.63-0.29L122.63-0.29Q120.60-1.13 119.18-2.68L119.18-2.68L119.18-2.68Q117.76-4.23 117-6.50L117-6.50L117-6.50Q116.23-8.78 116.23-11.70L116.23-11.70L116.23-11.70Q116.23-14.31 117-16.56L117-16.56L117-16.56Q117.76-18.81 119.16-20.45L119.16-20.45L119.16-20.45Q120.55-22.09 122.49-23.02L122.49-23.02L122.49-23.02Q124.42-23.94 126.81-23.94L126.81-23.94L126.81-23.94Q129.33-23.94 131.22-23.09L131.22-23.09L131.22-23.09Q133.11-22.23 134.37-20.75L134.37-20.75L134.37-20.75Q135.63-19.26 136.26-17.28L136.26-17.28L136.26-17.28Q136.89-15.30 136.89-13.09L136.89-13.09L136.89-13.09Q136.89-11.52 136.75-10.04L136.75-10.04zM126.72-20.43L126.72-20.43L126.72-20.43Q124.06-20.43 122.38-18.63L122.38-18.63L122.38-18.63Q120.69-16.83 120.33-13.32L120.33-13.32L133.16-13.32L133.16-13.32Q133.16-16.74 131.44-18.59L131.44-18.59L131.44-18.59Q129.73-20.43 126.72-20.43" fill="#fc4309" stroke="none" stroke-width="none" transform="translate(-132.864990234375,12.807903594970703)" style="fill: rgb(252, 67, 9);"></path></g><g class="path" style="transform: matrix(1, 0, 0, 1, 0, 14.925); opacity: 0.05; transform-origin: 16.375px 0.837903px; animation: 1s linear 0.33s 1 normal forwards running float-btt-in-e6e70a65-d4f2-478f-9e59-a29c3e1b0239;"><path d="M156.19-23.67L154.98-19.48L154.98-19.48Q154.13-19.84 152.95-19.84L152.95-19.84L152.95-19.84Q151.69-19.84 150.50-19.30L150.50-19.30L150.50-19.30Q149.31-18.77 148.39-17.68L148.39-17.68L148.39-17.68Q147.47-16.61 146.90-14.92L146.90-14.92L146.90-14.92Q146.34-13.23 146.34-10.93L146.34-10.93L146.34 0L142.29 0L142.29-23.40L146.20-23.40L146.20-18.31L146.20-18.31Q146.61-19.39 147.28-20.43L147.28-20.43L147.28-20.43Q147.96-21.46 148.88-22.23L148.88-22.23L148.88-22.23Q149.81-22.99 151.02-23.47L151.02-23.47L151.02-23.47Q152.23-23.94 153.72-23.94L153.72-23.94L153.72-23.94Q154.40-23.94 155.05-23.87L155.05-23.87L155.05-23.87Q155.70-23.80 156.19-23.67L156.19-23.67" fill="#fc4309" stroke="none" stroke-width="none" transform="translate(-132.864990234375,12.807903594970703)" style="fill: rgb(255, 118, 92);"></path></g><g class="path" style="transform: matrix(1, 0, 0, 1, 0, 14.925); opacity: 0.05; transform-origin: 33.5px 1.1079px; animation: 1s linear 0.385s 1 normal forwards running float-btt-in-e6e70a65-d4f2-478f-9e59-a29c3e1b0239;"><path d="M175.05-22.54L173.83-19.13L173.83-19.13Q172.53-19.75 171.40-20.05L171.40-20.05L171.40-20.05Q170.28-20.34 168.88-20.34L168.88-20.34L168.88-20.34Q167.31-20.34 165.94-19.75L165.94-19.75L165.94-19.75Q164.56-19.17 163.57-18.07L163.57-18.07L163.57-18.07Q162.58-16.96 162.02-15.39L162.02-15.39L162.02-15.39Q161.46-13.81 161.46-11.79L161.46-11.79L161.46-11.79Q161.46-9.95 161.98-8.37L161.98-8.37L161.98-8.37Q162.49-6.79 163.44-5.60L163.44-5.60L163.44-5.60Q164.38-4.41 165.69-3.73L165.69-3.73L165.69-3.73Q166.99-3.06 168.61-3.06L168.61-3.06L168.61-3.06Q170.32-3.06 171.54-3.42L171.54-3.42L171.54-3.42Q172.75-3.78 174.15-4.54L174.15-4.54L175.41-1.13L175.41-1.13Q173.97-0.36 172.26 0.09L172.26 0.09L172.26 0.09Q170.55 0.54 168.34 0.54L168.34 0.54L168.34 0.54Q165.82 0.54 163.80-0.36L163.80-0.36L163.80-0.36Q161.77-1.26 160.33-2.88L160.33-2.88L160.33-2.88Q158.89-4.50 158.11-6.75L158.11-6.75L158.11-6.75Q157.32-9 157.32-11.70L157.32-11.70L157.32-11.70Q157.32-14.22 158.11-16.45L158.11-16.45L158.11-16.45Q158.89-18.68 160.38-20.34L160.38-20.34L160.38-20.34Q161.86-22.00 163.96-22.97L163.96-22.97L163.96-22.97Q166.05-23.94 168.66-23.94L168.66-23.94L168.66-23.94Q170.68-23.94 172.17-23.58L172.17-23.58L172.17-23.58Q173.65-23.22 175.05-22.54L175.05-22.54" fill="#fc4309" stroke="none" stroke-width="none" transform="translate(-132.864990234375,12.807903594970703)" style="fill: rgb(255, 182, 70);"></path></g><g class="path" style="transform: matrix(1, 0, 0, 1, 0, 14.925); opacity: 0.05; transform-origin: 57.215px 1.1079px; animation: 1s linear 0.44s 1 normal forwards running float-btt-in-e6e70a65-d4f2-478f-9e59-a29c3e1b0239;"><path d="M178.11-11.56L178.11-11.56L178.11-11.56Q178.11-14.17 178.92-16.45L178.92-16.45L178.92-16.45Q179.73-18.72 181.19-20.38L181.19-20.38L181.19-20.38Q182.66-22.05 184.70-22.99L184.70-22.99L184.70-22.99Q186.75-23.94 189.18-23.94L189.18-23.94L189.18-23.94Q191.21-23.94 192.85-23.24L192.85-23.24L192.85-23.24Q194.49-22.54 195.71-21.51L195.71-21.51L195.71-23.40L199.40-23.40L199.40-5.67L199.40-5.67Q199.40-3.96 200.23-3.44L200.23-3.44L200.23-3.44Q201.06-2.92 202.05-2.92L202.05-2.92L201.19 0.22L201.19 0.22Q196.88 0.22 195.98-3.28L195.98-3.28L195.98-3.28Q195.44-2.56 194.74-1.87L194.74-1.87L194.74-1.87Q194.04-1.17 193.14-0.63L193.14-0.63L193.14-0.63Q192.24-0.09 191.12 0.22L191.12 0.22L191.12 0.22Q189.99 0.54 188.64 0.54L188.64 0.54L188.64 0.54Q186.44 0.54 184.52-0.32L184.52-0.32L184.52-0.32Q182.61-1.17 181.19-2.75L181.19-2.75L181.19-2.75Q179.78-4.32 178.94-6.55L178.94-6.55L178.94-6.55Q178.11-8.78 178.11-11.56zM189.54-3.06L189.54-3.06L189.54-3.06Q191.25-3.06 192.78-3.87L192.78-3.87L192.78-3.87Q194.31-4.68 195.34-5.98L195.34-5.98L195.34-18.54L195.34-18.54Q194.13-19.39 192.67-19.91L192.67-19.91L192.67-19.91Q191.21-20.43 189.59-20.43L189.59-20.43L189.59-20.43Q187.97-20.43 186.62-19.80L186.62-19.80L186.62-19.80Q185.27-19.17 184.30-18.02L184.30-18.02L184.30-18.02Q183.33-16.88 182.79-15.25L182.79-15.25L182.79-15.25Q182.25-13.63 182.25-11.70L182.25-11.70L182.25-11.70Q182.25-9.81 182.79-8.21L182.79-8.21L182.79-8.21Q183.33-6.61 184.32-5.47L184.32-5.47L184.32-5.47Q185.31-4.32 186.64-3.69L186.64-3.69L186.64-3.69Q187.97-3.06 189.54-3.06" fill="#fc4309" stroke="none" stroke-width="none" transform="translate(-132.864990234375,12.807903594970703)" style="fill: rgb(255, 153, 0);"></path></g><g class="path" style="transform: matrix(1, 0, 0, 1, 0, 14.925); opacity: 0.05; transform-origin: 81.54px 0.837903px; animation: 1s linear 0.495s 1 normal forwards running float-btt-in-e6e70a65-d4f2-478f-9e59-a29c3e1b0239;"><path d="M221.36-23.67L220.14-19.48L220.14-19.48Q219.29-19.84 218.12-19.84L218.12-19.84L218.12-19.84Q216.86-19.84 215.66-19.30L215.66-19.30L215.66-19.30Q214.47-18.77 213.55-17.68L213.55-17.68L213.55-17.68Q212.63-16.61 212.06-14.92L212.06-14.92L212.06-14.92Q211.50-13.23 211.50-10.93L211.50-10.93L211.50 0L207.45 0L207.45-23.40L211.37-23.40L211.37-18.31L211.37-18.31Q211.77-19.39 212.45-20.43L212.45-20.43L212.45-20.43Q213.12-21.46 214.04-22.23L214.04-22.23L214.04-22.23Q214.97-22.99 216.18-23.47L216.18-23.47L216.18-23.47Q217.40-23.94 218.88-23.94L218.88-23.94L218.88-23.94Q219.56-23.94 220.21-23.87L220.21-23.87L220.21-23.87Q220.86-23.80 221.36-23.67L221.36-23.67" fill="#fc4309" stroke="none" stroke-width="none" transform="translate(-132.864990234375,12.807903594970703)" style="fill: rgb(255, 102, 0);"></path></g><g class="path" style="transform: matrix(1, 0, 0, 1, 0, 14.925); opacity: 0.05; transform-origin: 101.495px -3.5721px; animation: 1s linear 0.55s 1 normal forwards running float-btt-in-e6e70a65-d4f2-478f-9e59-a29c3e1b0239;"><path d="M232.92 0.54L232.92 0.54L232.92 0.54Q230.76 0.54 228.85-0.32L228.85-0.32L228.85-0.32Q226.94-1.17 225.52-2.75L225.52-2.75L225.52-2.75Q224.10-4.32 223.29-6.55L223.29-6.55L223.29-6.55Q222.48-8.78 222.48-11.56L222.48-11.56L222.48-11.56Q222.48-14.22 223.31-16.49L223.31-16.49L223.31-16.49Q224.15-18.77 225.56-20.41L225.56-20.41L225.56-20.41Q226.98-22.05 228.87-22.99L228.87-22.99L228.87-22.99Q230.76-23.94 232.88-23.94L232.88-23.94L232.88-23.94Q235.22-23.94 236.90-22.99L236.90-22.99L236.90-22.99Q238.59-22.05 239.54-21.06L239.54-21.06L239.54-33.30L243.59-33.30L243.59-5.67L243.59-5.67Q243.59-3.96 244.42-3.44L244.42-3.44L244.42-3.44Q245.25-2.92 246.24-2.92L246.24-2.92L245.39 0.22L245.39 0.22Q241.11 0.22 240.17-3.19L240.17-3.19L240.17-3.19Q239.13-1.75 237.38-0.61L237.38-0.61L237.38-0.61Q235.62 0.54 232.92 0.54zM233.82-3.06L233.82-3.06L233.82-3.06Q235.49-3.06 236.99-3.85L236.99-3.85L236.99-3.85Q238.50-4.63 239.54-5.89L239.54-5.89L239.54-17.50L239.54-17.50Q238.68-18.59 237.17-19.51L237.17-19.51L237.17-19.51Q235.67-20.43 233.78-20.43L233.78-20.43L233.78-20.43Q232.16-20.43 230.83-19.75L230.83-19.75L230.83-19.75Q229.50-19.08 228.56-17.91L228.56-17.91L228.56-17.91Q227.61-16.74 227.12-15.14L227.12-15.14L227.12-15.14Q226.62-13.54 226.62-11.70L226.62-11.70L226.62-11.70Q226.62-9.81 227.16-8.23L227.16-8.23L227.16-8.23Q227.70-6.66 228.67-5.51L228.67-5.51L228.67-5.51Q229.64-4.37 230.96-3.71L230.96-3.71L230.96-3.71Q232.29-3.06 233.82-3.06" fill="#fc4309" stroke="none" stroke-width="none" transform="translate(-132.864990234375,12.807903594970703)" style="fill: rgb(252, 67, 9);"></path></g><g class="path" style="transform: matrix(1, 0, 0, 1, 0, 14.925); opacity: 0.05; transform-origin: 125.595px 1.1079px; animation: 1s linear 0.605s 1 normal forwards running float-btt-in-e6e70a65-d4f2-478f-9e59-a29c3e1b0239;"><path d="M249.62-1.89L251.33-5.26L251.33-5.26Q252.50-4.23 254.27-3.60L254.27-3.60L254.27-3.60Q256.05-2.97 258.08-2.97L258.08-2.97L258.08-2.97Q260.60-2.97 261.88-3.80L261.88-3.80L261.88-3.80Q263.16-4.63 263.16-5.94L263.16-5.94L263.16-5.94Q263.16-6.61 262.91-7.20L262.91-7.20L262.91-7.20Q262.67-7.79 262.01-8.32L262.01-8.32L262.01-8.32Q261.36-8.87 260.24-9.38L260.24-9.38L260.24-9.38Q259.11-9.90 257.31-10.53L257.31-10.53L257.31-10.53Q253.98-11.65 252.36-13.21L252.36-13.21L252.36-13.21Q250.74-14.76 250.74-17.50L250.74-17.50L250.74-17.50Q250.74-18.86 251.35-20.02L251.35-20.02L251.35-20.02Q251.96-21.20 253.10-22.07L253.10-22.07L253.10-22.07Q254.25-22.95 255.89-23.45L255.89-23.45L255.89-23.45Q257.54-23.94 259.65-23.94L259.65-23.94L259.65-23.94Q261.94-23.94 263.68-23.47L263.68-23.47L263.68-23.47Q265.41-22.99 266.81-22.27L266.81-22.27L265.68-18.95L265.68-18.95Q264.47-19.66 262.91-20.11L262.91-20.11L262.91-20.11Q261.36-20.56 259.47-20.56L259.47-20.56L259.47-20.56Q257.13-20.56 255.92-19.62L255.92-19.62L255.92-19.62Q254.70-18.68 254.70-17.55L254.70-17.55L254.70-17.55Q254.70-17.01 254.90-16.56L254.90-16.56L254.90-16.56Q255.11-16.11 255.65-15.71L255.65-15.71L255.65-15.71Q256.19-15.30 257.09-14.89L257.09-14.89L257.09-14.89Q257.99-14.49 259.34-14.04L259.34-14.04L259.34-14.04Q261.54-13.28 263.07-12.49L263.07-12.49L263.07-12.49Q264.60-11.70 265.55-10.75L265.55-10.75L265.55-10.75Q266.49-9.81 266.90-8.71L266.90-8.71L266.90-8.71Q267.30-7.60 267.30-6.25L267.30-6.25L267.30-6.25Q267.30-4.68 266.63-3.42L266.63-3.42L266.63-3.42Q265.95-2.16 264.74-1.28L264.74-1.28L264.74-1.28Q263.52-0.40 261.79 0.07L261.79 0.07L261.79 0.07Q260.06 0.54 257.94 0.54L257.94 0.54L257.94 0.54Q255.24 0.54 253.13-0.14L253.13-0.14L253.13-0.14Q251.01-0.81 249.62-1.89L249.62-1.89" fill="#fc4309" stroke="none" stroke-width="none" transform="translate(-132.864990234375,12.807903594970703)" style="fill: rgb(255, 118, 92);"></path></g></g>
</g>
</g>
<style id="float-btt-in-e6e70a65-d4f2-478f-9e59-a29c3e1b0239" data-anikit="">@keyframes float-btt-in-e6e70a65-d4f2-478f-9e59-a29c3e1b0239
{
  0% {
    animation-timing-function: cubic-bezier(0.2242,0.7499,0.3142,0.8148);
    transform: translate(0px,14.925px) rotate(0deg) scale(1,1) skewX(0deg) skewY(0deg);
    opacity: 0.05;
  }
  100% {
    transform: translate(0px,0px) rotate(0deg) scale(1,1) skewX(0deg) skewY(0deg);
    opacity: 1;
  }
}</style></svg>